<svg width="24" height="24" viewBox="0 0 24 24" fill="none" xmlns="http://www.w3.org/2000/svg">
<g clip-path="url(#clip0)">
<path d="M24 12C24 5.4 18.6 0 12 0C5.4 0 0 5.4 0 12C0 18.6 5.4 24 12 24C18.6 24 24 18.6 24 12V12ZM11.376 17.424C11.016 17.088 11.016 16.512 11.376 16.152L14.64 12.888H7.2C6.696 12.888 6.312 12.48 6.312 12C6.312 11.52 6.696 11.088 7.2 11.088H14.64L11.376 7.824C11.016 7.488 11.016 6.912 11.376 6.552C11.736 6.192 12.288 6.216 12.648 6.552L17.448 11.352C17.52 11.448 17.592 11.544 17.64 11.64C17.688 11.76 17.712 11.88 17.712 12C17.712 12.216 17.616 12.456 17.448 12.624L12.648 17.424C12.288 17.784 11.712 17.784 11.376 17.424Z" fill="white"/>
</g>
<defs>
<clipPath id="clip0">
<rect width="24" height="24" fill="white"/>
</clipPath>
</defs>
</svg>
